<?xml version="1.0" standalone="no"?>
<!DOCTYPE svg PUBLIC "-//W3C//DTD SVG 20010904//EN"
 "http://www.w3.org/TR/2001/REC-SVG-20010904/DTD/svg10.dtd">
<svg version="1.0" xmlns="http://www.w3.org/2000/svg"
 width="513.000000pt" height="513.000000pt" viewBox="0 0 513.000000 513.000000"
 preserveAspectRatio="xMidYMid meet">
<metadata>
Created by potrace 1.11, written by Peter Selinger 2001-2013
</metadata>
<g transform="translate(0.000000,513.000000) scale(0.100000,-0.100000)"
fill="#000000" stroke="none">
<path d="M2360 5114 c-163 -19 -218 -28 -305 -45 -1076 -215 -1902 -1113
-2030 -2207 -19 -163 -19 -442 0 -606 35 -301 117 -571 257 -849 342 -677 961
-1168 1693 -1340 219 -52 319 -62 600 -61 291 0 402 14 652 79 427 112 833
345 1148 660 394 394 640 883 727 1440 29 187 31 541 5 720 -85 575 -333 1075
-727 1463 -406 401 -891 644 -1455 728 -95 15 -490 27 -565 18z m410 -598 c0
-2 -25 -44 -56 -92 -59 -95 -184 -341 -184 -364 0 -10 5 -8 14 5 29 41 469
435 486 435 5 0 -17 -37 -47 -82 -99 -148 -208 -395 -177 -405 47 -16 153 -92
219 -158 66 -66 89 -97 127 -175 90 -183 118 -305 118 -513 0 -166 -16 -275
-60 -407 l-31 -91 38 -42 c91 -98 160 -231 193 -369 49 -206 51 -559 5 -823
-24 -134 -26 -165 -20 -295 3 -80 7 -154 9 -165 3 -22 38 -35 78 -27 47 8 96
-8 133 -42 31 -29 35 -39 35 -83 0 -85 -64 -163 -162 -199 -107 -39 -361 -24
-554 32 -197 57 -396 245 -475 448 -29 74 -36 118 -169 1011 -34 226 -64 420
-67 433 -18 74 -120 69 -289 -12 -65 -31 -120 -54 -123 -50 -3 3 -6 54 -5 112
0 89 5 120 27 185 15 42 27 79 27 81 0 1 -85 70 -190 152 -104 82 -189 152
-190 156 0 3 8 5 18 3 9 -2 70 -6 135 -9 l117 -6 -24 37 c-58 88 -121 317
-133 481 -3 50 -3 92 1 92 4 0 36 -30 71 -67 35 -37 67 -64 71 -61 3 4 1 37
-6 75 -6 37 -13 158 -16 268 l-5 200 99 -259 99 -259 23 69 c72 214 228 461
323 510 l30 16 -22 -30 c-29 -41 -48 -98 -56 -168 -8 -68 -16 -72 89 49 123
139 476 439 476 403z"/>
</g>
</svg>
